Coordinates
version=1
nRows=17
nColumns=34
inDegrees=yes

Units are S.I. units (second, meters, Newtons, ...)
If the header above contains a line with 'inDegrees', this indicates whether rotational values are in degrees (yes) or radians (no).

endheader
time	pelvis_tilt	pelvis_list	pelvis_rotation	pelvis_tx	pelvis_ty	pelvis_tz	hip_flexion_r	hip_adduction_r	hip_rotation_r	knee_angle_r	ankle_angle_r	subtalar_angle_r	mtp_angle_r	hip_flexion_l	hip_adduction_l	hip_rotation_l	knee_angle_l	ankle_angle_l	subtalar_angle_l	mtp_angle_l	lumbar_extension	lumbar_bending	lumbar_rotation	arm_flex_r	arm_add_r	arm_rot_r	elbow_flex_r	pro_sup_r	arm_flex_l	arm_add_l	arm_rot_l	elbow_flex_l	pro_sup_l
      3.13333330	     -9.43550298	      2.06244400	      7.10920814	      1.95481059	      0.94001650	     -0.19189745	      1.41499035	     -6.99021614	    -12.87282099	      3.30586714	    -23.93741334	     -4.74306214	      0.00000000	      4.91289139	     -3.20064202	     -8.69262272	      2.19151611	    -21.63382184	      3.66498171	      0.00000000	      1.45473281	     -9.35255906	     14.15134191	    149.26134454	     -0.00462909	     47.55853070	      4.93389916	     52.16317947	    131.71873730	      7.10298977	     31.74449292	     74.05883086	     79.84828440
      3.15000000	     -9.86534004	      1.91348149	      7.26226197	      1.95943177	      0.93935019	     -0.18951437	      1.83144487	     -6.79984573	    -12.63556371	      3.79326523	    -24.86166473	     -5.50209529	      0.00000000	      5.10433996	     -3.29093946	     -7.98557758	      1.96833078	    -22.40554705	      2.04200047	      0.00000000	      2.15973937	     -9.57166663	     13.66633685	    151.86345790	      0.20647429	     47.86591360	      7.58273657	     51.55909129	    134.75882149	      7.03564496	     32.53507482	     72.49225351	     80.53593953
      3.16666670	    -10.16594725	      1.73239477	      7.35560708	      1.96416449	      0.94009302	     -0.18648838	      2.18891130	     -6.49643753	    -12.34757476	      4.38882980	    -25.15845195	     -6.01407859	      0.00000000	      5.18674347	     -3.51457432	     -7.41459085	      1.88912940	    -23.05066313	      0.62748933	      0.00000000	      2.69638449	     -9.58951292	     13.10982496	    153.82621206	      0.19572908	     48.62953785	     11.40313465	     51.41835907	    137.08175107	      6.58492663	     33.45123878	     71.87170037	     81.48749561
      3.18333330	    -10.32787271	      1.53844814	      7.49163903	      1.96942096	      0.94059105	     -0.18499255	      2.36273041	     -6.16003049	    -12.00409498	      4.98579548	    -25.05602191	     -6.35965180	      0.00000000	      5.07392821	     -3.78056046	     -7.04555178	      1.88139544	    -23.40575564	     -0.55488692	      0.00000000	      3.01496521	     -9.43425103	     12.65291031	    155.44483175	      0.20805515	     49.12074166	     15.46463583	     51.66903218	    138.38595355	      5.96392534	     34.15550214	     72.64980908	     82.50551678
      3.20000000	    -10.49404149	      1.37742833	      7.55963034	      1.97522528	      0.93821275	     -0.18537463	      2.49192406	     -5.92208014	    -11.64829175	      5.62213693	    -24.67038351	     -6.63428188	      0.00000000	      4.93098472	     -3.94773533	     -7.05111730	      2.02901302	    -23.35617151	     -1.64235895	      0.00000000	      3.17469429	     -9.27886584	     12.36239182	    157.15710369	      0.33739192	     49.05493246	     18.94938074	     52.11697542	    139.45330621	      5.64448220	     34.47710365	     73.44102278	     83.26383135
      3.21666670	    -10.55147017	      1.13872345	      7.82102294	      1.98143215	      0.93524058	     -0.18712163	      2.14462233	     -5.63044688	    -11.57045876	      5.86207088	    -24.46059755	     -6.93514907	      0.00000000	      4.51960641	     -4.09253237	     -6.89181655	      1.95096062	    -23.24176078	     -2.57467236	      0.00000000	      3.64105137	     -8.99288041	     11.79238363	    157.01176100	     -0.36216642	     46.51966188	     24.73270053	     54.20551647	    139.44453398	      5.12542901	     35.46921494	     73.83481797	     85.86514241
      3.23333330	    -10.61254313	      0.93545447	      7.85035115	      1.98691797	      0.93270237	     -0.18858440	      2.04431164	     -5.46483100	    -11.17942553	      6.60021307	    -23.75984033	     -7.20439873	      0.00000000	      4.19646430	     -4.20419593	     -7.21237283	      2.17526941	    -22.65508765	     -3.39399536	      0.00000000	      3.86339613	     -8.93410174	     10.71983671	    155.93926483	     -0.62504407	     38.36877365	     29.99529745	     61.21442230	    139.88368270	      5.15147515	     36.08594407	     73.89749526	     91.10495880
      3.25000000	    -10.67064620	      0.93935242	      7.93059728	      1.99233987	      0.93199917	     -0.19054875	      1.56270981	     -5.51698374	    -10.87457768	      6.80931197	    -22.72395089	     -7.41612559	      0.00000000	      3.66848288	     -4.05402829	     -7.26495686	      2.18922364	    -22.13984653	     -3.84946371	      0.00000000	      3.98523543	     -8.64044128	     10.83651164	    155.68293028	     -0.42799105	     32.56174902	     32.93453531	     87.53873355	    139.05267666	      4.84997302	     35.37572263	     75.18430205	     99.51601616
      3.26666670	    -10.23505954	      0.87247625	      7.96871864	      1.99720135	      0.93240262	     -0.19297070	      0.43587883	     -5.40864081	    -10.62081232	      6.73328460	    -21.79549370	     -7.45251621	      0.00000000	      2.57592254	     -4.04285565	     -7.38028898	      2.16727352	    -21.15163690	     -4.37952672	      0.00000000	      3.57439078	     -8.11714233	     10.05171913	    155.25544153	     -0.42813041	     32.92775561	     35.09332511	     87.96009307	    138.07448734	      4.08256017	     35.42929563	     76.69873846	     99.35299277
      3.28333330	    -10.02633239	      0.87496260	      7.91865327	      2.00172463	      0.93224089	     -0.19537968	     -0.41677022	     -5.43014556	    -10.42570416	      6.60652801	    -20.67224948	     -7.07295805	      0.00000000	      1.75287536	     -3.90950738	     -7.61280531	      2.16455369	    -20.20940104	     -4.70210386	      0.00000000	      3.54577983	     -7.76595530	      9.68557198	    154.22577885	     -1.15666912	     33.43690143	     38.12625842	     88.62488668	    136.23749214	      3.38922073	     35.41294784	     78.72053096	     99.26682870
      3.30000000	     -9.79631469	      0.91300167	      7.83619368	      2.00588332	      0.93208210	     -0.19708333	     -1.25435566	     -5.46069727	    -10.19519229	      6.43407671	    -19.73301657	     -6.68601308	      0.00000000	      1.00041299	     -3.74298567	     -7.83778268	      2.20739403	    -19.22383608	     -4.81080013	      0.00000000	      3.51833161	     -7.51766913	      9.54093142	    152.86452650	     -2.15826848	     34.01923652	     41.41197981	     89.39571566	    133.58043342	      2.82800924	     35.21624270	     81.40576645	     99.26665814
      3.31666670	     -9.71255485	      0.91887026	      7.65410194	      2.00972341	      0.93129065	     -0.19786064	     -1.74730343	     -5.45781087	    -10.01844490	      6.42837336	    -19.01773395	     -6.43207246	      0.00000000	      0.52773813	     -3.61546828	     -8.15114413	      2.32615487	    -18.18582093	     -4.78961543	      0.00000000	      3.58773051	     -7.34887869	      9.51938966	    151.27210128	     -3.44783042	     34.63575558	     45.23953924	     90.46935547	    130.49121569	      2.33968284	     34.68349578	     84.40125565	     99.37728493
      3.33333330	     -9.39760107	      0.94365497	      7.38904470	      2.01357377	      0.92961953	     -0.19854139	     -2.49621433	     -5.38079932	     -9.69248782	      6.28127593	    -18.74735160	     -6.42001201	      0.00000000	     -0.20505402	     -3.51522059	     -8.26338813	      2.31210168	    -17.57589045	     -4.63553313	      0.00000000	      3.32447287	     -7.12933843	      9.65044936	    149.58768601	     -4.58045026	     35.34101539	     48.85147897	     91.29541044	    127.29804219	      1.52327852	     34.46213479	     87.23022674	     99.51343086
      3.35000000	     -9.23498830	      0.93245763	      7.06592308	      2.01769096	      0.92757053	     -0.20059342	     -2.94965915	     -5.34198337	     -9.59565425	      6.26251287	    -18.63941279	     -6.67746204	      0.00000000	     -0.67931576	     -3.43586339	     -8.45206139	      2.46059183	    -16.89020056	     -4.62413356	      0.00000000	      3.13156219	     -6.93882655	      9.73264891	    147.74937792	     -6.00647792	     35.99111559	     53.07799720	     92.14046881	    124.29917907	      0.93162206	     34.18828128	     90.12709872	     99.67697422
      3.36666670	     -9.34095257	      0.92749394	      6.72279462	      2.02204612	      0.92612660	     -0.20404943	     -3.03439520	     -5.43480385	     -9.41199811	      6.34456628	    -18.47076453	     -7.01828392	      0.00000000	     -0.79256041	     -3.32620767	     -8.45558600	      2.79971105	    -16.07488231	     -4.59074819	      0.00000000	      3.26290160	     -7.02497626	      9.80007261	    145.32096719	     -8.29398770	     35.96639707	     58.67834376	     93.64675702	    121.61115747	      0.98766871	     34.09854255	     92.23328424	    100.11387397
      3.38333330	     -9.11569995	      1.00924414	      6.40179489	      2.02676838	      0.92631723	     -0.20787767	     -3.65751878	     -5.62779816	     -9.19814694	      6.10885040	    -18.62382516	     -7.10259678	      0.00000000	     -1.33988659	     -3.15610581	     -8.47923303	      3.09127555	    -15.74417597	     -4.58523980	      0.00000000	      3.08413026	     -6.97225084	      9.51269705	    142.12995003	    -10.38172324	     35.77300445	     64.62668555	     95.05500100	    118.75474590	      0.31825140	     34.49595119	     94.51301075	    100.61383312
      3.40000000	     -8.96738592	      1.15341043	      6.16292866	      2.03182917	      0.92680165	     -0.21137306	     -4.26057087	     -5.96424982	     -9.04301466	      5.83631813	    -18.82840424	     -7.02049243	      0.00000000	     -1.80533650	     -2.89597768	     -8.62065339	      3.41819492	    -15.54123069	     -4.55494428	      0.00000000	      3.22648155	     -7.06285647	      9.18753609	    137.68699184	    -12.89241593	     34.94110294	     71.82682709	     96.67225605	    115.09939973	     -0.71362345	     35.00055969	     96.98379177	    101.28876269
